<svg width="80" height="72" viewBox="0 0 80 72" fill="none" xmlns="http://www.w3.org/2000/svg">
<path fill-rule="evenodd" clip-rule="evenodd" d="M31.2971 71.25H48.7028C60.9267 71.25 67.0406 71.25 71.4312 68.3712C73.3261 67.1302 74.9579 65.5278 76.233 63.6556C79.1666 59.3473 79.1666 53.343 79.1666 41.3423C79.1666 29.3417 79.1666 23.3374 76.233 19.0291C74.9579 17.1569 73.3261 15.5544 71.4312 14.3134C68.6112 12.4608 65.0783 11.7989 59.6694 11.5639C57.0883 11.5639 54.8676 9.64475 54.3623 7.15767C53.9762 5.3359 52.973 3.70331 51.5222 2.53581C50.0713 1.36831 48.2619 0.7375 46.3998 0.749999H33.6001C29.7304 0.749999 26.3973 3.43292 25.6375 7.15767C25.1323 9.64475 22.9115 11.5639 20.3304 11.5639C14.9254 11.7989 11.3926 12.4647 8.56867 14.3134C6.6751 15.5549 5.04474 17.1573 3.77075 19.0291C0.833252 23.3374 0.833252 29.3378 0.833252 41.3423C0.833252 53.3469 0.833252 59.3433 3.76684 63.6556C5.03584 65.5199 6.66517 67.1218 8.56867 68.3712C12.9593 71.25 19.0732 71.25 31.2971 71.25ZM39.9999 25.3193C30.9877 25.3193 23.6792 32.4907 23.6792 41.3384C23.6792 50.1862 30.9916 57.3693 39.9999 57.3693C49.0083 57.3693 56.3207 50.194 56.3207 41.3463C56.3207 32.4985 49.0083 25.3193 39.9999 25.3193ZM39.9999 31.7269C34.5949 31.7269 30.2083 36.0313 30.2083 41.3423C30.2083 46.6494 34.5949 50.9538 39.9999 50.9538C45.4049 50.9538 49.7916 46.6494 49.7916 41.3423C49.7916 36.0353 45.4049 31.7269 39.9999 31.7269ZM58.4944 28.5231C58.4944 26.7528 59.9553 25.3193 61.7609 25.3193H66.1084C67.9101 25.3193 69.3749 26.7528 69.3749 28.5231C69.3666 29.3804 69.0184 30.1994 68.4066 30.8002C67.7949 31.4009 66.9697 31.7342 66.1123 31.7269H61.7609C61.3361 31.7311 60.9146 31.6515 60.5205 31.4927C60.1264 31.3339 59.7674 31.0991 59.4641 30.8016C59.1608 30.5041 58.919 30.1497 58.7526 29.7588C58.5863 29.3678 58.4985 28.9479 58.4944 28.5231Z" fill="white"/>
</svg>
