<svg width="24" height="25" viewBox="0 0 13 14" fill="none" xmlns="http://www.w3.org/2000/svg">
<path opacity="0.2" d="M9.5 8.5L8.58687 12.6088C8.56214 12.7198 8.5003 12.819 8.41156 12.8901C8.32282 12.9613 8.21248 13 8.09875 13H3.90125C3.78752 13 3.67718 12.9613 3.58844 12.8901C3.4997 12.819 3.43786 12.7198 3.41313 12.6088L2.5 8.5H9.5Z" fill="black"/>
<path d="M10.4999 8.00004H5.70619L5.85307 7.85317L7.10682 6.59942C7.61319 6.85443 8.17114 6.99039 8.73807 6.99692C9.30871 6.99842 9.86868 6.84226 10.3562 6.54567C11.8387 5.64817 12.6331 3.57067 12.4812 0.988167C12.474 0.865846 12.4222 0.750405 12.3356 0.663764C12.249 0.577122 12.1335 0.525311 12.0112 0.518167C9.42869 0.366917 7.35119 1.16067 6.45307 2.64317C5.86869 3.60879 5.85369 4.77504 6.39932 5.89317L5.49994 6.79254L4.73682 6.02942C5.11182 5.20129 5.08494 4.34192 4.64994 3.62442C3.97057 2.50004 2.41244 1.90004 0.483068 2.01379C0.360958 2.02107 0.245752 2.07286 0.159254 2.15935C0.0727567 2.24585 0.0209692 2.36106 0.0136933 2.48317C-0.100057 4.41254 0.499943 5.97004 1.62494 6.65004C2.00129 6.87991 2.43395 7.00106 2.87494 7.00004C3.27501 6.99607 3.66963 6.90679 4.03244 6.73817L4.79307 7.50004L4.29307 8.00004H1.49994C1.36733 8.00004 1.24016 8.05272 1.14639 8.14649C1.05262 8.24026 0.999943 8.36743 0.999943 8.50004C0.999943 8.63265 1.05262 8.75983 1.14639 8.8536C1.24016 8.94736 1.36733 9.00004 1.49994 9.00004H2.09932L2.92494 12.7169C2.97313 12.9396 3.09643 13.139 3.27419 13.2816C3.45194 13.4242 3.67332 13.5013 3.90119 13.5H8.09932C8.32713 13.5011 8.54839 13.4239 8.7261 13.2813C8.9038 13.1388 9.02717 12.9395 9.07557 12.7169L9.90119 9.00004H10.4999C10.6326 9.00004 10.7597 8.94736 10.8535 8.8536C10.9473 8.75983 10.9999 8.63265 10.9999 8.50004C10.9999 8.36743 10.9473 8.24026 10.8535 8.14649C10.7597 8.05272 10.6326 8.00004 10.4999 8.00004ZM7.31244 3.16129C7.96619 2.08254 9.51432 1.47379 11.4999 1.50067C11.5256 3.48879 10.9181 5.03692 9.83932 5.68817C9.11994 6.12567 8.25182 6.09692 7.38432 5.61442C6.90119 4.75004 6.87494 3.88067 7.31244 3.16129ZM3.75682 5.75692C3.18182 6.06442 2.61244 6.07879 2.14244 5.79442C1.42369 5.35879 1.00932 4.33192 0.999943 3.00004C2.33182 3.00942 3.35932 3.42379 3.79432 4.14254C4.07932 4.61254 4.06244 5.18192 3.75682 5.75692ZM8.09932 12.5H3.90119L3.12494 9.00004H8.87494L8.09932 12.5Z" fill="black"/>
</svg>
