<svg width="34" height="34" viewBox="0 0 34 34" fill="none" xmlns="http://www.w3.org/2000/svg">
<path d="M16.9999 1.19708L30.6849 9.09925V24.9007L16.9999 32.8029L3.31494 24.9007V9.09925L16.9999 1.19708ZM16.9999 4.46958L6.14828 10.7341V23.2659L16.9999 29.5304L27.8516 23.2659V10.7341L16.9999 4.46958ZM16.9999 12.75C15.8728 12.75 14.7918 13.1978 13.9947 13.9948C13.1977 14.7918 12.7499 15.8728 12.7499 17C12.7499 18.1272 13.1977 19.2082 13.9947 20.0052C14.7918 20.8022 15.8728 21.25 16.9999 21.25C18.1271 21.25 19.2081 20.8022 20.0051 20.0052C20.8022 19.2082 21.2499 18.1272 21.2499 17C21.2499 15.8728 20.8022 14.7918 20.0051 13.9948C19.2081 13.1978 18.1271 12.75 16.9999 12.75ZM9.91661 17C9.91661 15.1214 10.6629 13.3197 11.9913 11.9913C13.3197 10.6629 15.1213 9.91667 16.9999 9.91667C18.8786 9.91667 20.6802 10.6629 22.0086 11.9913C23.337 13.3197 24.0833 15.1214 24.0833 17C24.0833 18.8786 23.337 20.6803 22.0086 22.0087C20.6802 23.3371 18.8786 24.0833 16.9999 24.0833C15.1213 24.0833 13.3197 23.3371 11.9913 22.0087C10.6629 20.6803 9.91661 18.8786 9.91661 17Z" fill="black"/>
</svg>
