<svg width="28" height="32" viewBox="0 0 28 32" fill="none" xmlns="http://www.w3.org/2000/svg">
<path d="M13.9999 0.197083L27.6849 8.09925V23.9007L13.9999 31.8029L0.314941 23.9007V8.09925L13.9999 0.197083ZM13.9999 3.46958L3.14828 9.73408V22.2659L13.9999 28.5304L24.8516 22.2659V9.73408L13.9999 3.46958ZM13.9999 11.75C12.8728 11.75 11.7918 12.1978 10.9947 12.9948C10.1977 13.7918 9.74994 14.8728 9.74994 16C9.74994 17.1272 10.1977 18.2082 10.9947 19.0052C11.7918 19.8022 12.8728 20.25 13.9999 20.25C15.1271 20.25 16.2081 19.8022 17.0051 19.0052C17.8022 18.2082 18.2499 17.1272 18.2499 16C18.2499 14.8728 17.8022 13.7918 17.0051 12.9948C16.2081 12.1978 15.1271 11.75 13.9999 11.75ZM6.91661 16C6.91661 14.1214 7.66289 12.3197 8.99127 10.9913C10.3197 9.66294 12.1213 8.91667 13.9999 8.91667C15.8786 8.91667 17.6802 9.66294 19.0086 10.9913C20.337 12.3197 21.0833 14.1214 21.0833 16C21.0833 17.8786 20.337 19.6803 19.0086 21.0087C17.6802 22.3371 15.8786 23.0833 13.9999 23.0833C12.1213 23.0833 10.3197 22.3371 8.99127 21.0087C7.66289 19.6803 6.91661 17.8786 6.91661 16Z" fill="black"/>
</svg>
